<svg width="24" height="111" viewBox="0 0 24 111" fill="none" xmlns="http://www.w3.org/2000/svg">
<path fill-rule="evenodd" clip-rule="evenodd" d="M3.16235 0H20.1624C21.8124 0 23.1624 1.35 23.1624 3V20C23.1624 21.65 21.8124 23 20.1624 23H3.16235C1.51235 23 0.162354 21.65 0.162354 20V3C0.162354 1.35 1.51235 0 3.16235 0ZM21.1624 3C21.1624 2.458 20.7044 2 20.1624 2H3.16235C2.62035 2 2.16235 2.458 2.16235 3V20C2.16235 20.542 2.62035 21 3.16235 21H20.1624C20.7044 21 21.1624 20.542 21.1624 20V3Z" fill="#C5C5C5"/>
<path fill-rule="evenodd" clip-rule="evenodd" d="M3.16241 44H20.1624C21.8124 44 23.1624 45.35 23.1624 47V64C23.1624 65.65 21.8124 67 20.1624 67H3.16241C1.51241 67 0.162415 65.65 0.162415 64V47C0.162415 45.35 1.51241 44 3.16241 44ZM21.1624 47C21.1624 46.458 20.7044 46 20.1624 46H3.16241C2.62041 46 2.16241 46.458 2.16241 47V64C2.16241 64.542 2.62041 65 3.16241 65H20.1624C20.7044 65 21.1624 64.542 21.1624 64V47Z" fill="#B5B5B5"/>
<g opacity="0.3">
<path fill-rule="evenodd" clip-rule="evenodd" d="M3.16241 88H20.1624C21.8124 88 23.1624 89.35 23.1624 91V108C23.1624 109.65 21.8124 111 20.1624 111H3.16241C1.51241 111 0.162415 109.65 0.162415 108V91C0.162415 89.35 1.51241 88 3.16241 88ZM21.1624 91C21.1624 90.458 20.7044 90 20.1624 90H3.16241C2.62041 90 2.16241 90.458 2.16241 91V108C2.16241 108.542 2.62041 109 3.16241 109H20.1624C20.7044 109 21.1624 108.542 21.1624 108V91Z" fill="#B5B5B5"/>
</g>
</svg>
