<svg width="28" height="111" viewBox="0 0 28 111" fill="none" xmlns="http://www.w3.org/2000/svg">
<path d="M7.44735 7.48604L4.61835 10.315L12.4013 18.098L26.3333 4.16604L23.5053 1.33704L12.4013 12.439L7.44735 7.48604Z" fill="#C5C5C5"/>
<path d="M21.1624 20C21.1624 20.542 20.7044 21 20.1624 21H3.16235C2.62035 21 2.16235 20.542 2.16235 20V3C2.16235 2.458 2.62035 2 3.16235 2H20.0704L21.6554 0.415C21.2034 0.146542 20.688 0.00329969 20.1624 0H3.16235C1.51235 0 0.162354 1.35 0.162354 3V20C0.162354 21.65 1.51235 23 3.16235 23H20.1624C21.8124 23 23.1624 21.65 23.1624 20V10.171L21.1624 12.171V20Z" fill="#C5C5C5"/>
<path d="M7.44741 51.486L4.61841 54.315L12.4014 62.098L26.3334 48.166L23.5054 45.337L12.4014 56.439L7.44741 51.486Z" fill="#B5B5B5"/>
<path d="M21.1624 64C21.1624 64.542 20.7044 65 20.1624 65H3.16241C2.62041 65 2.16241 64.542 2.16241 64V47C2.16241 46.458 2.62041 46 3.16241 46H20.0704L21.6554 44.415C21.2034 44.1465 20.6881 44.0033 20.1624 44H3.16241C1.51241 44 0.162415 45.35 0.162415 47V64C0.162415 65.65 1.51241 67 3.16241 67H20.1624C21.8124 67 23.1624 65.65 23.1624 64V54.171L21.1624 56.171V64Z" fill="#B5B5B5"/>
<g opacity="0.3">
<path d="M7.44741 95.486L4.61841 98.315L12.4014 106.098L26.3334 92.166L23.5054 89.337L12.4014 100.439L7.44741 95.486Z" fill="#B5B5B5"/>
<path d="M21.1624 108C21.1624 108.542 20.7044 109 20.1624 109H3.16241C2.62041 109 2.16241 108.542 2.16241 108V91C2.16241 90.458 2.62041 90 3.16241 90H20.0704L21.6554 88.415C21.2034 88.1465 20.6881 88.0033 20.1624 88H3.16241C1.51241 88 0.162415 89.35 0.162415 91V108C0.162415 109.65 1.51241 111 3.16241 111H20.1624C21.8124 111 23.1624 109.65 23.1624 108V98.171L21.1624 100.171V108Z" fill="#B5B5B5"/>
</g>
</svg>
