<svg width="26" height="113" viewBox="0 0 26 113" fill="none" xmlns="http://www.w3.org/2000/svg">
<path fill-rule="evenodd" clip-rule="evenodd" d="M0.162415 12.5C0.162415 5.597 5.75941 0 12.6624 0C19.5654 0 25.1624 5.597 25.1624 12.5C25.1624 19.403 19.5654 25 12.6624 25C5.75941 25 0.162415 19.403 0.162415 12.5ZM21.1624 12.5C21.1624 7.813 17.3494 4 12.6624 4C7.97541 4 4.16241 7.813 4.16241 12.5C4.16241 17.187 7.97541 21 12.6624 21C17.3494 21 21.1624 17.187 21.1624 12.5Z" fill="#C5C5C5"/>
<path d="M12.6624 17C15.1477 17 17.1624 14.9853 17.1624 12.5C17.1624 10.0147 15.1477 8 12.6624 8C10.1771 8 8.16241 10.0147 8.16241 12.5C8.16241 14.9853 10.1771 17 12.6624 17Z" fill="#C5C5C5"/>
<path fill-rule="evenodd" clip-rule="evenodd" d="M0.162415 56.5C0.162415 49.597 5.75941 44 12.6624 44C19.5654 44 25.1624 49.597 25.1624 56.5C25.1624 63.403 19.5654 69 12.6624 69C5.75941 69 0.162415 63.403 0.162415 56.5ZM21.1624 56.5C21.1624 51.813 17.3494 48 12.6624 48C7.97541 48 4.16241 51.813 4.16241 56.5C4.16241 61.187 7.97541 65 12.6624 65C17.3494 65 21.1624 61.187 21.1624 56.5Z" fill="#B5B5B5"/>
<path d="M12.6624 61C15.1477 61 17.1624 58.9853 17.1624 56.5C17.1624 54.0147 15.1477 52 12.6624 52C10.1771 52 8.16241 54.0147 8.16241 56.5C8.16241 58.9853 10.1771 61 12.6624 61Z" fill="#B5B5B5"/>
<g opacity="0.3">
<path fill-rule="evenodd" clip-rule="evenodd" d="M0.162415 100.5C0.162415 93.597 5.75941 88 12.6624 88C19.5654 88 25.1624 93.597 25.1624 100.5C25.1624 107.403 19.5654 113 12.6624 113C5.75941 113 0.162415 107.403 0.162415 100.5ZM21.1624 100.5C21.1624 95.813 17.3494 92 12.6624 92C7.97541 92 4.16241 95.813 4.16241 100.5C4.16241 105.187 7.97541 109 12.6624 109C17.3494 109 21.1624 105.187 21.1624 100.5Z" fill="#B5B5B5"/>
<path d="M12.6624 105C15.1477 105 17.1624 102.985 17.1624 100.5C17.1624 98.0147 15.1477 96 12.6624 96C10.1771 96 8.16241 98.0147 8.16241 100.5C8.16241 102.985 10.1771 105 12.6624 105Z" fill="#B5B5B5"/>
</g>
</svg>
