<svg width="26" height="113" viewBox="0 0 26 113" fill="none" xmlns="http://www.w3.org/2000/svg">
<path fill-rule="evenodd" clip-rule="evenodd" d="M0.162354 12.5C0.162354 5.597 5.75935 0 12.6624 0C19.5654 0 25.1624 5.597 25.1624 12.5C25.1624 19.403 19.5654 25 12.6624 25C5.75935 25 0.162354 19.403 0.162354 12.5ZM21.1624 12.5C21.1624 7.813 17.3494 4 12.6624 4C7.97535 4 4.16235 7.813 4.16235 12.5C4.16235 17.187 7.97535 21 12.6624 21C17.3494 21 21.1624 17.187 21.1624 12.5Z" fill="#C5C5C5"/>
<path fill-rule="evenodd" clip-rule="evenodd" d="M0.162354 56.5C0.162354 49.597 5.75935 44 12.6624 44C19.5654 44 25.1624 49.597 25.1624 56.5C25.1624 63.403 19.5654 69 12.6624 69C5.75935 69 0.162354 63.403 0.162354 56.5ZM21.1624 56.5C21.1624 51.813 17.3494 48 12.6624 48C7.97535 48 4.16235 51.813 4.16235 56.5C4.16235 61.187 7.97535 65 12.6624 65C17.3494 65 21.1624 61.187 21.1624 56.5Z" fill="#B5B5B5"/>
<g opacity="0.3">
<path fill-rule="evenodd" clip-rule="evenodd" d="M0.162354 100.5C0.162354 93.597 5.75935 88 12.6624 88C19.5654 88 25.1624 93.597 25.1624 100.5C25.1624 107.403 19.5654 113 12.6624 113C5.75935 113 0.162354 107.403 0.162354 100.5ZM21.1624 100.5C21.1624 95.813 17.3494 92 12.6624 92C7.97535 92 4.16235 95.813 4.16235 100.5C4.16235 105.187 7.97535 109 12.6624 109C17.3494 109 21.1624 105.187 21.1624 100.5Z" fill="#B5B5B5"/>
</g>
</svg>
